,
.   http://www.scenetime.com/signup.php               Hottest scene tracker on the net !!!  

    seed back for speed


 



...................................NFO:.................................................::::::::::::::Enjoy:Another:Release:From:TDP::::::::::::::

[IMG]http://www.blu-raydisc-reporter.com/wp-content/uploads/2011/04/The-Adjustment-Bureau-BD.jpg[/IMG]

TiTLE.........: The.Adjustment.Bureau.2011.V2.BRRip.AC3-TDP
RUNTiME.......: 1h 45mn
FORMAT........: XviD
RAR COUNT.....: 101x15MB
SOURCE .......: The.Adjustment.Bureau.2011.720p.BluRay.x264-SiNNERS
GENRE.........: Romance | Sci-Fi | Thriller
AUDIO.........: English 
SUBTITLES.....: None
SAMPEL........: YES
RELEASE DATE..: 10-06-2011

IMDB : http://www.imdb.com/title/tt1601475/ [\color=red][b]7.1/10[/b][/color]

Plot :
The affair between a politician and a ballerina is affected by 
mysterious forces keeping the lovers apart. 


General
Complete name                    : The.Adjustment.Bureau.2011.BRRip.AC3-TDP
Format                           : AVI
Format/Info                      : Audio Video Interleave
Format profile                   : OpenDML
File size                        : 1.41 GiB
Duration                         : 1h 45mn
Overall bit rate                 : 1 907 Kbps
Writing application              : MEncoder version 4.0.0 building on 20100917


Video

Format                           : MPEG-4 Visual
Format profile                   : Simple@L1
Format settings, BVOP            : No
Format settings, QPel            : No
Format settings, GMC             : No warppoints
Format settings, Matrix          : Default (H.263)
Codec ID                         : DX50
Codec ID/Hint                    : DivX 5
Duration                         : 1h 45mn
Bit rate                         : 1 453 Kbps
Width                            : 720 pixels
Height                           : 404 pixels
Display aspect ratio             : 16:9
Frame rate                       : 23.976 fps
Color space                      : YUV
Chroma subsampling               : 4:2:0
Bit depth                        : 8 bits
Scan type                        : Progressive
Compression mode                 : Lossy
Bits/(Pixel*Frame)               : 0.208
Stream size                      : 1.07 GiB (77%)
Writing library                  : DigiArty AV Encoder Core

Audio

Format                           : AC-3
Format/Info                      : Audio Coding 3
Mode extension                   : CM (complete main)
Codec ID                         : 2000
Duration                         : 1h 45mn
Bit rate mode                    : Constant
Bit rate                         : 448 Kbps
Channel(s)                       : 6 channels
Channel positions                : Front: L C R, Side: L R, LFE
Sampling rate                    : 48.0 KHz
Bit depth                        : 16 bits
Compression mode                 : Lossy
Stream size                      : 339 MiB (23%)
Alignment                        : Split accross interleaves
Interleave, duration             : 500 ms (11.99 video frames)
Interleave, preload duration     : 500 ms

Note:
The firt was rip in Format Matroska, and has some left/right audio channel problem
We have created a version 2 where all problems should be solved


GREETS:

IMAGiNE,FLAWL3SS,ViSiON,FUSiON,Rx,CM8,SecretMyth,BirdFlu,ELEKTRI4KA,Serenity,INK,SUBLIME
And to all the other p2p grps past and present

Looking for : SYNCERS, CAMMERS, SEED/RiPBOXES for group use
CAPPERS, SiLVER SUPPLiERS, and R1-R2-R4 PRE-RETAiL SOURCE SUPPLIERS!
Always looking for CAM+LiNE+SCR+DVDSCR+BRSCR+RUS DVD+PRERETAIL BR & DVD
If you'd like to help, feel free to contact us at thedanishpirates@gmail.com